<svg xmlns="http://www.w3.org/2000/svg" viewBox="0 0 1132.44 1204.89"><defs><style>.cls-1{fill:none;stroke-width:4px;}.cls-1,.cls-10,.cls-11{stroke:#231f20;}.cls-1,.cls-10,.cls-11,.cls-12,.cls-3,.cls-4,.cls-5,.cls-6,.cls-7,.cls-8,.cls-9{stroke-miterlimit:10;}.cls-2{font-size:64px;font-family:Roboto-Regular, Roboto;}.cls-10,.cls-2{fill:#231f20;}.cls-3{fill:#eee754;}.cls-3,.cls-5{stroke:#eee754;}.cls-4,.cls-6{fill:#171717;}.cls-4{stroke:#171717;}.cls-5{fill:#606161;}.cls-12,.cls-6,.cls-7{stroke:#000;}.cls-7{fill:#020202;}.cls-8{fill:#a3a3a3;stroke:#a3a3a3;}.cls-9{fill:#eee752;stroke:#eee752;}.cls-11{fill:#f0efef;}</style></defs><title>wasps_logo_original</title><g id="Layer_16" data-name="Layer 16"><circle class="cls-1" cx="562.57" cy="596.09" r="534.46"/><circle class="cls-1" cx="562.57" cy="596.09" r="432.12"/><text class="cls-2" transform="translate(292.08 227.98) rotate(-32.47)">W</text><text class="cls-2" transform="translate(363.94 185.79) rotate(-23.5)">e</text><text class="cls-2" transform="translate(421.35 162.84) rotate(-15.6)">b</text><text class="cls-2" transform="translate(483.85 147.5) rotate(-7.74)">s</text><text class="cls-2" transform="translate(545.19 141.24) rotate(-0.93)">t</text><text class="cls-2" transform="translate(595.46 141.82) rotate(6.05)">e</text><text class="cls-2" transform="translate(656.86 150.41) rotate(13.03)">r</text><text class="cls-2" transform="translate(705.44 163.31) rotate(18.95)"> </text><text class="cls-2" transform="matrix(0.9, 0.44, -0.44, 0.9, 746.81, 178.53)">A</text><text class="cls-2" transform="translate(808.09 211.02) rotate(34.19)">s</text><text class="cls-2" transform="translate(857.9 247.11) rotate(41.8)">s</text><text class="cls-2" transform="translate(902.51 289.41) rotate(49.57)">o</text><text class="cls-2" transform="translate(942.73 339.69) rotate(57.39)">c</text><text class="cls-2" transform="translate(974.41 393.19) rotate(64.02)">i</text><text class="cls-2" transform="translate(992.84 433.52) rotate(70.76)">a</text><text class="cls-2" transform="translate(1011.65 493.96) rotate(77.87)">t</text><text class="cls-2" transform="matrix(0.11, 0.99, -0.99, 0.11, 1020.67, 543.62)">i</text><text class="cls-2" transform="translate(1024.56 587.73) rotate(90.93)">o</text><text class="cls-2" transform="translate(1021.96 652.14) rotate(98.41)">n</text><text class="cls-2" transform="translate(1010.28 715.61) rotate(105.19)"> </text><text class="cls-2" transform="translate(997.69 757.9) rotate(112)">o</text><text class="cls-2" transform="translate(971.51 816.82) rotate(119.15)">f</text><text class="cls-2" transform="translate(945.54 860.06) rotate(125.04)"> </text><text class="cls-2" transform="translate(919.42 895.6) rotate(131.97)">S</text><text class="cls-2" transform="matrix(-0.77, 0.64, -0.64, -0.77, 872.45, 944.58)">e</text><text class="cls-2" transform="translate(823.93 982.94) rotate(147.8)">n</text><text class="cls-2" transform="matrix(-0.9, 0.43, -0.43, -0.9, 768.14, 1015.4)">i</text><text class="cls-2" transform="translate(727.65 1033.46) rotate(161.39)">o</text><text class="cls-2" transform="translate(665.86 1051.93) rotate(168.56)">r</text><text class="cls-2" transform="matrix(-1, 0.1, -0.1, -1, 616.28, 1060.32)"> </text><text class="cls-2" transform="matrix(-1, -0.02, 0.02, -1, 572.31, 1063.64)">P</text><text class="cls-2" transform="translate(503.36 1059.57) rotate(-171.26)">r</text><text class="cls-2" transform="matrix(-0.96, -0.27, 0.27, -0.96, 454.68, 1050.82)">o</text><text class="cls-2" transform="matrix(-0.91, -0.4, 0.4, -0.91, 393.36, 1031.41)">g</text><text class="cls-2" transform="matrix(-0.86, -0.52, 0.52, -0.86, 335.31, 1003.3)">r</text><text class="cls-2" transform="matrix(-0.79, -0.62, 0.62, -0.79, 293.07, 976.37)">a</text><text class="cls-2" transform="translate(244.31 936.46) rotate(-132.9)">m</text><text class="cls-2" transform="matrix(-0.57, -0.82, 0.82, -0.57, 189.69, 872.83)"> </text><text class="cls-2" transform="translate(165.2 836.15) rotate(-118.03)">S</text><text class="cls-2" transform="translate(135.23 775.31) rotate(-109.78)">u</text><text class="cls-2" transform="matrix(-0.2, -0.98, 0.98, -0.2, 115.33, 714.14)">p</text><text class="cls-2" transform="translate(104.19 650.78) rotate(-93.73)">p</text><text class="cls-2" transform="translate(101.92 586.45) rotate(-85.85)">o</text><text class="cls-2" transform="translate(108.76 522.32) rotate(-78.74)">r</text><text class="cls-2" transform="translate(120.23 472.9) rotate(-72.37)">t</text><text class="cls-2" transform="matrix(0.42, -0.91, 0.91, 0.42, 136.76, 425.4)">e</text><text class="cls-2" transform="translate(164.49 369.96) rotate(-58.37)">r</text><text class="cls-2" transform="translate(191.92 328.02) rotate(-51.44)">s</text></g><g id="Layer_14" data-name="Layer 14"><path class="cls-3" d="M226,532.29c35.81-9.06,86.73-15.44,127.55,10.81,50.25,32.31,57.28,78,87.68,96.46,15.71,9.57,41.91-68.78,107.27-71.06l96.12,76.76a73.46,73.46,0,0,1-15,21c-15.33,14.82-33.38,18.69-44.64,20.95-52.34,10.54-146.64-9-152.14-8.65-121.39,7.74-147.91,3-174.21-26.25-12.89-14.36-37.36-41.89-32.59-120"/></g><g id="Layer_9" data-name="Layer 9"><path class="cls-4" d="M326.69,531.56c-36-1.21-76.51,39.82-88.53,78.82-3.34,10.84-3.77-30.28,8.08-54.57C262,523.44,339.77,532,326.69,531.56Z"/><path class="cls-4" d="M354.17,544.39c-31.39,7.48-87.3,67-87.15,114.18,0,11.35-.61-46.76,11.24-71.06C294,555.14,366.9,541.36,354.17,544.39Z"/><path class="cls-4" d="M370.72,559.57C346.49,581.74,306,631.08,306.19,678.3c0,11.34-3-60.53,17-83.8C349.19,564.2,379,552,370.72,559.57Z"/></g><g id="Layer_15" data-name="Layer 15"><circle class="cls-5" cx="364.65" cy="725.53" r="44.18"/><circle class="cls-5" cx="567.46" cy="726.68" r="44.18"/></g><g id="Layer_12" data-name="Layer 12"><rect class="cls-4" x="562.57" y="687.95" width="9.13" height="23"/><rect class="cls-4" x="582.14" y="694.83" width="9.13" height="24.11" transform="translate(671.69 -207.82) rotate(45)"/><rect class="cls-4" x="589.21" y="712.57" width="9.13" height="24.79" transform="translate(1318.74 131.19) rotate(90)"/><rect class="cls-4" x="583.08" y="730.02" width="9.13" height="26.53" transform="translate(1532.33 816.68) rotate(132.77)"/><rect class="cls-4" x="562.57" y="738.97" width="9.13" height="27.33"/><rect class="cls-4" x="544.22" y="731.55" width="9.13" height="26.52" transform="translate(687.39 -169.9) rotate(45)"/><rect class="cls-4" x="535.87" y="711.94" width="9.13" height="26.04" transform="translate(1265.4 184.53) rotate(90)"/><rect class="cls-4" x="543.97" y="695.04" width="9.13" height="24.08" transform="translate(1436.39 819.19) rotate(135)"/><circle class="cls-6" cx="567.46" cy="724.96" r="14.01"/><rect class="cls-4" x="359.38" y="686.93" width="9.13" height="23"/><rect class="cls-4" x="378.95" y="693.81" width="9.13" height="24.11" transform="translate(611.45 -64.44) rotate(45)"/><rect class="cls-4" x="386.03" y="711.54" width="9.13" height="24.79" transform="translate(1114.53 333.35) rotate(90)"/><rect class="cls-4" x="379.9" y="729" width="9.13" height="26.53" transform="translate(1190.4 964.11) rotate(132.77)"/><rect class="cls-4" x="359.38" y="737.95" width="9.13" height="27.33"/><rect class="cls-4" x="341.03" y="730.52" width="9.13" height="26.52" transform="translate(627.16 -26.52) rotate(45)"/><rect class="cls-4" x="332.68" y="710.92" width="9.13" height="26.04" transform="translate(1061.19 386.69) rotate(90)"/><rect class="cls-4" x="340.78" y="694.02" width="9.13" height="24.08" transform="translate(1088.8 961.12) rotate(135)"/><circle class="cls-6" cx="364.27" cy="723.94" r="14.01"/><path class="cls-7" d="M364.84,654.82A70.15,70.15,0,1,0,435,725,70.15,70.15,0,0,0,364.84,654.82Zm-.48,111.46A40.25,40.25,0,1,1,404.61,726,40.25,40.25,0,0,1,364.36,766.28Z"/><path class="cls-7" d="M568,655.84A70.15,70.15,0,1,0,638.18,726,70.15,70.15,0,0,0,568,655.84Zm-.48,111.47a40.25,40.25,0,1,1,40.24-40.25A40.25,40.25,0,0,1,567.55,767.31Z"/></g><g id="wings"><path class="cls-8" d="M558.85,600.27c-30.37-18.53-179-141.64-278.77-187.37-7.29-3.34-33.71-17.31-54.36,21.26-5.28,9.86,22,21.82,89.58,51.32,155.94,68,161.35,72.28,179.32,82.45,22,12.45,35.69,17.76,51.78,39C547.87,608.89,563.61,603.17,558.85,600.27Z"/><path class="cls-8" d="M530.66,480c-16.45-46.46-38.62-94.75-52.28-106.59-9.13-7.91-29.73,7.48-29.76,19.74-.12,38.68,66.41,82.6,75.21,111.75C525.91,511.77,534.19,490,530.66,480Z"/></g><g id="Layer_4" data-name="Layer 4"><path class="cls-9" d="M640.67,441.29c1.57.21,6.21.56,8.42,0,22-5.49,32.36-12.3,58.31-8.2,23.43,3.71,53.22,31.71,61,55.58,8.2,25.05-4.37,66-30.07,91.71-36,36.12-52.27,67.85-88.75,65.85-33.25-1.82-66.52-44.14-97.1-70.56S517.8,506,530.66,480c11.51-23.3,34.61-42.59,60.58-46.69C603.24,431.43,622.54,438.86,640.67,441.29Z"/></g><g id="Layer_13" data-name="Layer 13"><path class="cls-10" d="M627.33,596.86c9.53,6.82,41.87,7.92,52.18-.22.38-.3,1.11-.71,1.33-.48,1.14,1.24-8.57,13.11-26,14.43S623,593.75,627.33,596.86Z"/></g><g id="eyes"><path class="cls-10" d="M568.27,481.38c-16,1.08-34.16,11.88-33.71,24.82.83,23.74,28,71.79,48.28,69.47,15.25-1.75,28.39-49.13,23.46-75.16C604.15,489.17,583.84,480.32,568.27,481.38Z"/><path class="cls-10" d="M727.8,481.93c16.37,1.08,34.94,11.88,34.48,24.83-.85,23.73-28.67,71.78-49.39,69.46-15.59-1.75-29-49.13-24-75.16C691.1,489.72,711.87,480.88,727.8,481.93Z"/></g><g id="Layer_11" data-name="Layer 11"><circle class="cls-11" cx="711.49" cy="507.51" r="15.11"/><circle class="cls-11" cx="558.16" cy="505.56" r="15.11"/><circle class="cls-11" cx="738.59" cy="535.85" r="6.78"/><circle class="cls-11" cx="587.85" cy="535.85" r="6.78"/></g><g id="antennas"><path class="cls-12" d="M672,463.46c1.5-8.59,11-20.68,17.62-28.39,19.28-22.63,15.37-37.54,31.27-41.3,34.17-8.08,97.7,9.18,130.89,34.32,21.21,16.06,33.64,32.39,42.82,44.64,3.77,5,26.43,35.84,32,71.51,1.22,7.76,2.4,20.66-4.85,28.85-1,1.15-4.78,5.39-9.11,4.86-4.6-.56-7.86-6-8.51-8.5-6.1-23.76-12.31-33.71-24-60.74-10.15-23.5-24.34-38.36-52.53-61.34-24.52-20-55-38.72-84.43-36.44-11.94.93-20.91,13-28.85,20.65-13.64,13.13-20.47,19.7-22.77,30.06-.75,3.39-1.2,7.89-4.56,9.72-3.93,2.15-10.64,0-14.27-4.25A4.69,4.69,0,0,1,672,463.46Z"/><path class="cls-12" d="M612,460.74c-1.32-8.25-9.74-19.88-15.53-27.29-17-21.75-13.57-36.08-27.59-39.7-30.14-7.77-86.18,8.83-115.45,33-18.71,15.44-29.67,31.14-37.77,42.91-3.34,4.85-23.32,34.46-28.26,68.75-1.08,7.46-2.12,19.86,4.28,27.73.9,1.1,4.21,5.18,8,4.67,4.05-.53,6.93-5.75,7.5-8.17,5.38-22.84,10.86-32.41,21.16-58.39,9-22.59,21.47-36.88,46.34-59,21.62-19.21,48.48-37.23,74.47-35,10.53.88,18.45,12.51,25.44,19.85,12,12.62,18.06,18.93,20.09,28.9.67,3.26,1.07,7.57,4,9.34,3.47,2.07,9.4,0,12.59-4.09A4.77,4.77,0,0,0,612,460.74Z"/></g></svg>